<svg width="26" height="31" viewBox="0 0 26 31" version="1.1" xmlns="http://www.w3.org/2000/svg" xmlns:xlink="http://www.w3.org/1999/xlink">
<title>noun_897911_cc</title>
<desc>Created using Figma</desc>
<g id="Canvas" transform="translate(-3604 -5954)">
<g id="noun_897911_cc">
<g id="Rectangle 69">
<use xlink:href="#path0_stroke" transform="translate(3605.27 5962.92)" fill="#212121"/>
</g>
<g id="Line 20">
<use xlink:href="#path1_stroke" transform="translate(3610.98 5955.7)" fill="#212121"/>
</g>
<g id="Vector">
<use xlink:href="#path2_fill" transform="translate(3609.25 5964.03)" fill="#FFFFFF"/>
</g>
<g id="Vector">
<use xlink:href="#path3_fill" transform="translate(3621.73 5964.3)" fill="#FFFFFF"/>
</g>
</g>
</g>
<defs>
<path id="path0_stroke" d="M 23.0489 15.7136L 22.0534 15.8079L 23.0489 15.7136ZM 21.7325 1.81146L 20.737 1.90573L 21.7325 1.81146ZM 3.722 1L 19.7414 1L 19.7414 -1L 3.722 -1L 3.722 1ZM 20.737 1.90573L 22.0534 15.8079L 24.0445 15.6193L 22.7281 1.71719L 20.737 1.90573ZM 19.0668 19.0907L 4.39666 19.0907L 4.39666 21.0907L 19.0668 21.0907L 19.0668 19.0907ZM 1.41002 15.8079L 2.72645 1.90573L 0.735361 1.71719L -0.581069 15.6193L 1.41002 15.8079ZM 3.722 -1C 2.17471 -1 0.881226 0.176783 0.735361 1.71719L 2.72645 1.90573C 2.77508 1.39226 3.20624 1 3.722 1L 3.722 -1ZM 19.7414 1C 20.2572 1 20.6883 1.39226 20.737 1.90573L 22.7281 1.71719C 22.5822 0.176783 21.2887 -1 19.7414 -1L 19.7414 1ZM 22.0534 15.8079C 22.2201 17.5686 20.8353 19.0907 19.0668 19.0907L 19.0668 21.0907C 22.0144 21.0907 24.3224 18.5538 24.0445 15.6193L 22.0534 15.8079ZM 4.39666 19.0907C 2.62809 19.0907 1.2433 17.5686 1.41002 15.8079L -0.581069 15.6193C -0.858945 18.5538 1.44904 21.0907 4.39666 21.0907L 4.39666 19.0907Z"/>
<path id="path1_stroke" d="M 0 6.90617C 1 6.90617 1 6.9066 1 6.90699C 1 6.90709 0.999999 6.90746 0.999999 6.90766C 0.999999 6.90757 0.999996 6.90872 0.999996 6.90853C 0.999996 6.90876 0.999994 6.90889 0.999998 6.90846C 1.00001 6.90638 1.00002 6.90518 1.00008 6.90117C 1.00024 6.89068 1.00045 6.87918 1.00108 6.85921C 1.00244 6.81418 1.00476 6.75742 1.01024 6.67487C 1.02169 6.49903 1.04214 6.27222 1.08758 5.97836C 1.18041 5.36727 1.34302 4.63854 1.70148 3.87033C 2.37101 2.41203 3.64887 1 6.34146 1L 6.34146 -1C 2.6926 -1 0.799726 1.04106 -0.116112 3.03584C -0.550338 3.99418 -0.784068 4.99199 -0.889406 5.67581C -0.943059 6.0294 -0.972147 6.34213 -0.98547 6.54398C -0.992371 6.65027 -0.99625 6.74188 -0.997984 6.79802C -0.998906 6.82863 -0.999462 6.85591 -0.999697 6.87155C -0.999828 6.88061 -0.999915 6.88932 -0.999949 6.89388C -0.99997 6.89677 -0.999985 6.89986 -0.99999 6.9013C -0.999994 6.90232 -0.999997 6.90355 -0.999998 6.90406C -0.999999 6.90446 -0.999999 6.90499 -1 6.9052C -1 6.9057 -1 6.90617 0 6.90617ZM 6.34146 1C 9.03406 1 10.3119 2.41203 10.9814 3.87033C 11.3399 4.63854 11.5025 5.36727 11.5954 5.97836C 11.6408 6.27222 11.6612 6.49903 11.6727 6.67487C 11.6782 6.75742 11.6805 6.81418 11.6818 6.85921C 11.6825 6.87918 11.6827 6.89068 11.6828 6.90117C 11.6829 6.90518 11.6829 6.90638 11.6829 6.90846C 11.6829 6.90889 11.6829 6.90876 11.6829 6.90853C 11.6829 6.90872 11.6829 6.90757 11.6829 6.90766C 11.6829 6.90746 11.6829 6.90709 11.6829 6.90699C 11.6829 6.9066 11.6829 6.90617 12.6829 6.90617C 13.6829 6.90617 13.6829 6.9057 13.6829 6.9052C 13.6829 6.90499 13.6829 6.90446 13.6829 6.90406C 13.6829 6.90355 13.6829 6.90232 13.6829 6.9013C 13.6829 6.89986 13.6829 6.89677 13.6829 6.89388C 13.6828 6.88932 13.6828 6.88061 13.6826 6.87155C 13.6824 6.85591 13.6818 6.82863 13.6809 6.79802C 13.6792 6.74188 13.6753 6.65027 13.6684 6.54398C 13.6551 6.34213 13.626 6.0294 13.5723 5.67581C 13.467 4.99199 13.2333 3.99418 12.799 3.03584C 11.8832 1.04106 9.99033 -1 6.34146 -1L 6.34146 1Z"/>
<path id="path2_fill" d="M 1.64654 3.29572C 2.5559 3.29572 3.29308 2.55795 3.29308 1.64786C 3.29308 0.737772 2.5559 0 1.64654 0C 0.737181 0 0 0.737772 0 1.64786C 0 2.55795 0.737181 3.29572 1.64654 3.29572Z"/>
<path id="path3_fill" d="M 1.64654 3.29572C 2.5559 3.29572 3.29308 2.55795 3.29308 1.64786C 3.29308 0.737773 2.5559 0 1.64654 0C 0.73718 0 0 0.737773 0 1.64786C 0 2.55795 0.73718 3.29572 1.64654 3.29572Z"/>
</defs>
</svg>
