<svg width="27" height="24" viewBox="0 0 27 24" version="1.1" xmlns="http://www.w3.org/2000/svg" xmlns:xlink="http://www.w3.org/1999/xlink">
<title>Union</title>
<desc>Created using Figma</desc>
<g id="Canvas" transform="translate(-3507 -5960)">
<g id="Union">
<mask id="mask0_outline_ins">
<use xlink:href="#path0_fill" fill="white" transform="translate(3507 5960)"/>
</mask>
<g mask="url(#mask0_outline_ins)">
<use xlink:href="#path1_stroke_2x" transform="translate(3507 5960)" fill="#EB2A76"/>
</g>
</g>
</g>
<defs>
<path id="path0_fill" d="M 13.3723 2.36808C 10.3779 -0.828203 5.41262 -0.769609 2.41819 2.42697C -0.576386 5.62326 -1.02785 10.8 2.41819 14.0022L 13.3723 24L 24.3169 14.0022C 27.7721 10.8 27.324 5.62326 24.3169 2.42697C 21.3098 -0.769316 16.3793 -0.828203 13.3723 2.36808Z" transform="translate(3507 5960)" />
<path id="path1_stroke_2x" d="M 2.41819 2.42697L 3.87771 3.79438L 3.8778 3.79428L 2.41819 2.42697ZM 13.3723 2.36808L 11.9127 3.73546L 13.3692 5.29013L 14.829 3.73851L 13.3723 2.36808ZM 2.41819 14.0022L 1.05678 15.4673L 1.06332 15.4734L 1.06993 15.4794L 2.41819 14.0022ZM 13.3723 24L 12.024 25.4772L 13.3729 26.7083L 14.7212 25.4766L 13.3723 24ZM 24.3169 14.0022L 25.6658 15.4788L 25.6711 15.474L 25.6763 15.4691L 24.3169 14.0022ZM 24.3169 2.42697L 22.8602 3.7974L 22.8602 3.79744L 24.3169 2.42697ZM 3.8778 3.79428C 6.1017 1.42025 9.72811 1.40357 11.9127 3.73546L 14.8318 1.00071C 11.0276 -3.05997 4.72354 -2.95947 0.95858 1.05966L 3.8778 3.79428ZM 3.77961 12.537C 1.31017 10.2424 1.47668 6.35713 3.87771 3.79438L 0.958675 1.05956C -2.62946 4.88938 -3.36587 11.3576 1.05678 15.4673L 3.77961 12.537ZM 14.7206 22.5228L 3.76646 12.5249L 1.06993 15.4794L 12.024 25.4772L 14.7206 22.5228ZM 14.7212 25.4766L 25.6658 15.4788L 22.968 12.5255L 12.0234 22.5234L 14.7212 25.4766ZM 25.6763 15.4691C 30.1102 11.3601 29.3787 4.88845 25.7735 1.05651L 22.8602 3.79744C 25.2693 6.35807 25.4341 10.24 22.9574 12.5352L 25.6763 15.4691ZM 25.7735 1.05654C 21.9966 -2.95807 15.7321 -3.05901 11.9156 0.997654L 14.829 3.73851C 17.0266 1.40261 20.623 1.41944 22.8602 3.7974L 25.7735 1.05654Z" transform="translate(3507 5960)" />
</defs>
</svg>
